<svg width="171" height="123" viewBox="0 0 171 123" fill="none" xmlns="http://www.w3.org/2000/svg">
<path fill-rule="evenodd" clip-rule="evenodd" d="M49.3125 109.562C49.3125 107.963 49.9479 106.429 51.079 105.298C52.2101 104.167 53.7442 103.531 55.3438 103.531H163.906C165.506 103.531 167.04 104.167 168.171 105.298C169.302 106.429 169.938 107.963 169.938 109.562C169.938 111.162 169.302 112.696 168.171 113.827C167.04 114.958 165.506 115.594 163.906 115.594H55.3438C53.7442 115.594 52.2101 114.958 51.079 113.827C49.9479 112.696 49.3125 111.162 49.3125 109.562ZM49.3125 61.3125C49.3125 59.7129 49.9479 58.1788 51.079 57.0478C52.2101 55.9167 53.7442 55.2812 55.3438 55.2812H163.906C165.506 55.2812 167.04 55.9167 168.171 57.0478C169.302 58.1788 169.938 59.7129 169.938 61.3125C169.938 62.9121 169.302 64.4462 168.171 65.5772C167.04 66.7083 165.506 67.3438 163.906 67.3438H55.3438C53.7442 67.3438 52.2101 66.7083 51.079 65.5772C49.9479 64.4462 49.3125 62.9121 49.3125 61.3125ZM49.3125 13.0625C49.3125 11.4629 49.9479 9.92884 51.079 8.79776C52.2101 7.66668 53.7442 7.03125 55.3438 7.03125H163.906C165.506 7.03125 167.04 7.66668 168.171 8.79776C169.302 9.92884 169.938 11.4629 169.938 13.0625C169.938 14.6621 169.302 16.1962 168.171 17.3272C167.04 18.4583 165.506 19.0938 163.906 19.0938H55.3438C53.7442 19.0938 52.2101 18.4583 51.079 17.3272C49.9479 16.1962 49.3125 14.6621 49.3125 13.0625ZM13.125 25.125C16.3242 25.125 19.3923 23.8541 21.6545 21.592C23.9166 19.3298 25.1875 16.2617 25.1875 13.0625C25.1875 9.86333 23.9166 6.79518 21.6545 4.53302C19.3923 2.27087 16.3242 1 13.125 1C9.92583 1 6.85768 2.27087 4.59552 4.53302C2.33337 6.79518 1.0625 9.86333 1.0625 13.0625C1.0625 16.2617 2.33337 19.3298 4.59552 21.592C6.85768 23.8541 9.92583 25.125 13.125 25.125ZM13.125 73.375C16.3242 73.375 19.3923 72.1041 21.6545 69.842C23.9166 67.5798 25.1875 64.5117 25.1875 61.3125C25.1875 58.1133 23.9166 55.0452 21.6545 52.783C19.3923 50.5209 16.3242 49.25 13.125 49.25C9.92583 49.25 6.85768 50.5209 4.59552 52.783C2.33337 55.0452 1.0625 58.1133 1.0625 61.3125C1.0625 64.5117 2.33337 67.5798 4.59552 69.842C6.85768 72.1041 9.92583 73.375 13.125 73.375ZM13.125 121.625C16.3242 121.625 19.3923 120.354 21.6545 118.092C23.9166 115.83 25.1875 112.762 25.1875 109.562C25.1875 106.363 23.9166 103.295 21.6545 101.033C19.3923 98.7709 16.3242 97.5 13.125 97.5C9.92583 97.5 6.85768 98.7709 4.59552 101.033C2.33337 103.295 1.0625 106.363 1.0625 109.562C1.0625 112.762 2.33337 115.83 4.59552 118.092C6.85768 120.354 9.92583 121.625 13.125 121.625Z" stroke="black"/>
</svg>
