<svg width="389" height="517" viewBox="0 0 389 517" fill="none" xmlns="http://www.w3.org/2000/svg">
<path d="M0.5 194.885C0.5 87.528 87.3581 0.5 194.5 0.5C301.642 0.5 388.5 87.528 388.5 194.885C388.5 211.145 386.285 230.011 381.783 247.845C377.281 265.685 370.499 282.455 361.391 294.551L194.5 516.169L27.6092 294.551C7.52532 267.881 0.5 230.832 0.5 194.885ZM276.85 194.884C276.85 149.322 239.975 112.373 194.5 112.373C149.025 112.373 112.15 149.322 112.15 194.885C112.15 240.448 149.025 277.397 194.5 277.397C239.975 277.397 276.85 240.448 276.85 194.884Z" stroke="black"/>
</svg>
