<svg width="169" height="121" viewBox="0 0 169 121" fill='current'  stroke='inherit' xmlns="http://www.w3.org/2000/svg">
<path fill-rule="evenodd" clip-rule="evenodd" d="M48.3125 108.562C48.3125 106.963 48.9479 105.429 50.079 104.298C51.2101 103.167 52.7442 102.531 54.3438 102.531H162.906C164.506 102.531 166.04 103.167 167.171 104.298C168.302 105.429 168.938 106.963 168.938 108.562C168.938 110.162 168.302 111.696 167.171 112.827C166.04 113.958 164.506 114.594 162.906 114.594H54.3438C52.7442 114.594 51.2101 113.958 50.079 112.827C48.9479 111.696 48.3125 110.162 48.3125 108.562ZM48.3125 60.3125C48.3125 58.7129 48.9479 57.1788 50.079 56.0478C51.2101 54.9167 52.7442 54.2812 54.3438 54.2812H162.906C164.506 54.2812 166.04 54.9167 167.171 56.0478C168.302 57.1788 168.938 58.7129 168.938 60.3125C168.938 61.9121 168.302 63.4462 167.171 64.5772C166.04 65.7083 164.506 66.3438 162.906 66.3438H54.3438C52.7442 66.3438 51.2101 65.7083 50.079 64.5772C48.9479 63.4462 48.3125 61.9121 48.3125 60.3125ZM48.3125 12.0625C48.3125 10.4629 48.9479 8.92884 50.079 7.79776C51.2101 6.66668 52.7442 6.03125 54.3438 6.03125H162.906C164.506 6.03125 166.04 6.66668 167.171 7.79776C168.302 8.92884 168.938 10.4629 168.938 12.0625C168.938 13.6621 168.302 15.1962 167.171 16.3272C166.04 17.4583 164.506 18.0938 162.906 18.0938H54.3438C52.7442 18.0938 51.2101 17.4583 50.079 16.3272C48.9479 15.1962 48.3125 13.6621 48.3125 12.0625ZM12.125 24.125C15.3242 24.125 18.3923 22.8541 20.6545 20.592C22.9166 18.3298 24.1875 15.2617 24.1875 12.0625C24.1875 8.86333 22.9166 5.79518 20.6545 3.53302C18.3923 1.27087 15.3242 0 12.125 0C8.92583 0 5.85768 1.27087 3.59552 3.53302C1.33337 5.79518 0.0625 8.86333 0.0625 12.0625C0.0625 15.2617 1.33337 18.3298 3.59552 20.592C5.85768 22.8541 8.92583 24.125 12.125 24.125ZM12.125 72.375C15.3242 72.375 18.3923 71.1041 20.6545 68.842C22.9166 66.5798 24.1875 63.5117 24.1875 60.3125C24.1875 57.1133 22.9166 54.0452 20.6545 51.783C18.3923 49.5209 15.3242 48.25 12.125 48.25C8.92583 48.25 5.85768 49.5209 3.59552 51.783C1.33337 54.0452 0.0625 57.1133 0.0625 60.3125C0.0625 63.5117 1.33337 66.5798 3.59552 68.842C5.85768 71.1041 8.92583 72.375 12.125 72.375ZM12.125 120.625C15.3242 120.625 18.3923 119.354 20.6545 117.092C22.9166 114.83 24.1875 111.762 24.1875 108.562C24.1875 105.363 22.9166 102.295 20.6545 100.033C18.3923 97.7709 15.3242 96.5 12.125 96.5C8.92583 96.5 5.85768 97.7709 3.59552 100.033C1.33337 102.295 0.0625 105.363 0.0625 108.562C0.0625 111.762 1.33337 114.83 3.59552 117.092C5.85768 119.354 8.92583 120.625 12.125 120.625Z" />
</svg>
